<svg xmlns="http://www.w3.org/2000/svg" fill="none" viewBox="0 0 180 180"><path fill="#000" d="M133.66 37.887c.634 1.25 2.149 1.749 3.379 1.104l12.109-6.362a2.569 2.569 0 0 0 1.088-3.43L136.055 1.385c-.635-1.248-2.15-1.747-3.379-1.104l-12.11 6.349a2.584 2.584 0 0 0-1.075 3.443l14.169 27.814zM86.135 76.111c10.305-1.027 19.477 6.642 20.49 17.118.995 10.477-6.577 19.785-16.883 20.78-10.304 1.01-19.494-6.643-20.472-17.136-1.014-10.46 6.56-19.75 16.865-20.762zM93.747 178.1a668.016 668.016 0 0 0 4.45-3.298c-1.453-6.373-4.887-15.1-6.858-19.793-5.1-12.168-15.268-13.981-30.726-21.005-8.02-3.644-27.873-11.052-27.873-11.052-3.88-1.482-5.153-5.265-3.728-9.151 1.427-3.853 6.166-5.318 10.031-3.976 10.854 3.766 20.781 8.264 39.244 15.375 12.021 4.621 17.45 1.551 25.555-2.981 5.72-3.19 11.627-5.438 13.053-15.688.507-3.718 4.284-33.174 5.923-45.966a7.308 7.308 0 0 1 8.246-6.315 7.316 7.316 0 0 1 6.282 7.981l-3.861 37.292c-1.488 14.364.209 28.539 4.084 42.308 24.667-24.306 29.325-40.514 29.325-56.838 0-12.205-9.448-39.88-40.372-39.88-22.34 0-32.534 12.304-36.472 19.134-.936 1.623-3.27 1.623-4.206 0-3.938-6.83-14.132-19.133-36.472-19.133C18.448 45.113 9 72.787 9 84.992c0 23.304 9.486 46.369 73.148 93.107a9.796 9.796 0 0 0 11.599 0"/></svg>